#!OML:ASF F:\VICON\USERDATA\INSTALL\rory3\rory3.ASF
:FULLY-SPECIFIED
:DEGREES
256
root 1.20361 23.2104 -16.5284 4.42215 -2.38751 -1.12343
lowerback 10.22 -0.000258804 0.864059
upperback -0.235781 0.258357 2.55285
thorax -5.99782 0.140443 2.15045
lowerneck -17.6483 -3.1045 -6.86121
upperneck 12.1138 -3.31474 5.0609
head 6.78333 -1.47504 2.39366
rclavicle 2.98177e-016 -2.06736e-014
rhumerus -36.3071 4.08616 -82.4747
rradius 54.9685
rwrist -3.9921
rhand -16.4469 18.5158
rfingers 7.12502
rthumb 9.76904 -11.2376
lclavicle 2.98177e-016 -2.06736e-014
lhumerus -34.1931 -3.64092 85.1848
lradius 44.3982
lwrist 2.43352
lhand -20.8183 23.4565
lfingers 7.12502
lthumb 5.54978 53.3638
rfemur -15.3155 -1.73492 22.2445
rtibia 29.1114
rfoot 14.0231 -6.69547
rtoes 5.18995
lfemur -14.6632 -0.724933 -18.5413
ltibia 30.5382
lfoot 14.8483 -8.69956
ltoes -0.484896
257
root 1.20031 23.1644 -16.5236 4.44969 -2.4426 -1.04414
lowerback 10.0827 0.0144781 0.735666
upperback -0.243453 0.257361 2.51662
thorax -5.92855 0.143126 2.18414
lowerneck -18.4986 -3.00585 -6.75601
upperneck 13.0515 -3.16935 5.00408
head 7.21939 -1.39686 2.37363
rclavicle 8.15017e-015 -1.82882e-014
rhumerus -36.4257 3.8 -82.349
rradius 54.8269
rwrist -3.82075
rhand -16.8972 17.9511
rfingers 7.12502
rthumb 9.33454 -11.8222
lclavicle 8.15017e-015 -1.82882e-014
lhumerus -33.9986 -3.81347 85.0057
lradius 44.0932
lwrist 2.77284
lhand -19.3665 25.9143
lfingers 7.12502
lthumb 6.95137 55.7802
rfemur -15.1094 -1.48109 22.1861
rtibia 28.4293
rfoot 13.6085 -6.85034
rtoes 4.15557
lfemur -14.4383 -1.06898 -18.5845
ltibia 29.7879
lfoot 14.3792 -7.56247
ltoes -0.387792
258
root 1.19641 23.1029 -16.5239 4.56618 -2.41774 -0.911635
lowerback 9.86667 -0.0521511 0.453755
upperback -0.295601 0.136117 2.58255
thorax -5.85845 0.0929983 2.42976
lowerneck -18.8474 -2.81945 -7.23391
upperneck 13.5466 -2.86736 5.49413
head 7.43694 -1.22834 2.65214
rclavicle -5.26779e-015 -1.11319e-014
rhumerus -36.5045 3.71954 -82.116
rradius 54.6656
rwrist -3.67365
rhand -17.0835 17.606
rfingers 7.12502
rthumb 9.15481 -12.1753
lclavicle -5.26779e-015 -1.11319e-014
lhumerus -33.8257 -3.81591 84.933
lradius 43.6649
lwrist 3.15436
lhand -17.5051 30.6725
lfingers 7.12502
lthumb 8.74798 60.4712
rfemur -15.0842 -1.23586 22.0737
rtibia 27.7978
rfoot 13.4769 -7.02054
rtoes 3.70112
lfemur -14.3869 -1.34733 -18.6857
ltibia 29.0818
lfoot 14.4473 -6.3776
ltoes 1.04672
259
root 1.19039 23.0279 -16.5279 4.66635 -2.40096 -0.842241
lowerback 9.74813 -0.109477 0.27459
upperback -0.402231 0.0410078 2.61045
thorax -5.90035 0.0528841 2.57457
lowerneck -18.4556 -2.88784 -7.66728
upperneck 13.4019 -2.95153 5.95419
head 7.34313 -1.25307 2.8664
rclavicle 3.57812e-015 1.27222e-014
rhumerus -36.5559 3.55726 -81.9837
rradius 54.4097
rwrist -3.60648
rhand -16.9287 17.2808
rfingers 7.12502
rthumb 9.30411 -12.4939
lclavicle 3.57812e-015 1.27222e-014
lhumerus -33.5808 -3.51025 84.6343
lradius 43.1574
lwrist 2.38803
lhand -20.3463 23.1203
lfingers 7.12502
lthumb 6.00553 53.0152
rfemur -15.0435 -0.935464 22.0439
rtibia 27.2293
rfoot 13.2715 -7.151
rtoes 2.15277
lfemur -14.3711 -1.58904 -18.7065
ltibia 28.3967
lfoot 14.615 -5.04198
ltoes 1.533
260
root 1.18412 22.9468 -16.5349 4.77729 -2.36487 -0.737489
lowerback 9.77689 -0.0460192 0.108502
upperback -0.639432 0.105164 2.49143
thorax -6.1696 0.090828 2.5369
lowerneck -17.7431 -3.14623 -7.45357
upperneck 13.0654 -3.39629 5.93549
head 7.1407 -1.4664 2.77318
rclavicle 6.36111e-015 1.11319e-014
rhumerus -37 3.05723 -81.9903
rradius 54.3995
rwrist -3.44225
rhand -17.1452 16.9109
rfingers 7.12502
rthumb 9.09525 -12.873
lclavicle 6.36111e-015 1.11319e-014
lhumerus -33.5754 -3.66286 84.307
lradius 42.899
lwrist 1.56977
lhand -20.4039 21.8065
lfingers 7.12502
lthumb 5.94987 51.703
rfemur -15.035 -0.719425 21.9769
rtibia 26.7294
rfoot 13.1338 -6.98426
rtoes 0.641807
lfemur -14.3928 -1.85146 -18.7663
ltibia 27.7078
lfoot 14.3819 -3.79663
ltoes 0.413907
261
root 1.18053 22.8564 -16.536 4.92818 -2.25363 -0.566088
lowerback 9.70686 -0.0893639 -0.114782
upperback -0.847268 0.0226676 2.45925
thorax -6.34614 0.0598501 2.64357
lowerneck -17.6113 -3.23671 -7.63178
upperneck 13.3124 -3.51505 6.05914
head 7.21319 -1.524 2.8317
rclavicle -5.26779e-015 4.77083e-015
rhumerus -37.4594 2.9443 -81.8996
rradius 54.5158
rwrist -3.375
rhand -17.5228 17.1233
rfingers 7.12502
rthumb 8.73089 -12.6761
lclavicle -5.26779e-015 4.77083e-015
lhumerus -33.6701 -3.67455 84.1266
lradius 42.826
lwrist 1.27474
lhand -20.5607 22.6216
lfingers 7.12502
lthumb 5.79852 52.5223
rfemur -15.0535 -0.623898 21.8134
rtibia 26.2466
rfoot 13.3904 -6.86001
rtoes 1.82138
lfemur -14.456 -2.14622 -18.8958
ltibia 27.0456
lfoot 14.2893 -2.68316
ltoes 2.43875
262
root 1.17942 22.7548 -16.5333 5.04495 -2.13104 -0.369289
lowerback 9.54628 -0.137226 -0.280281
upperback -0.848805 -0.0667235 2.38968
thorax -6.2521 0.019578 2.67537
lowerneck -17.8907 -3.31793 -7.76844
upperneck 13.4373 -3.5952 6.17722
head 7.3122 -1.55432 2.88306
rclavicle -3.77691e-015 -2.38542e-015
rhumerus -37.4172 2.70378 -81.7461
rradius 54.4497
rwrist -3.4135
rhand -17.6555 17.2571
rfingers 7.12502
rthumb 8.6028 -12.5476
lclavicle -3.77691e-015 -2.38542e-015
lhumerus -33.2539 -3.7699 83.9043
lradius 42.6373
lwrist 1.08176
lhand -20.1291 23.8337
lfingers 7.12502
lthumb 6.2152 53.7225
rfemur -15.0186 -0.509809 21.6047
rtibia 25.744
rfoot 14.1385 -6.72536
rtoes 4.216
lfemur -14.4547 -2.33359 -19.0888
ltibia 26.41
lfoot 14.2652 -1.77774
ltoes 3.6582
